<svg width="276" height="38" viewBox="0 0 276 38" fill="none" xmlns="http://www.w3.org/2000/svg">
<path d="M5.76 30.56C5.76 29.84 5.77333 29.1867 5.8 28.6C5.85333 27.9867 5.90667 27.4 5.96 26.84C6.01333 26.28 6.05333 25.72 6.08 25.16C6.13333 24.5733 6.16 23.9467 6.16 23.28C6.16 22.9333 6.08 22.5867 5.92 22.24C5.76 21.8667 5.46667 21.5467 5.04 21.28C4.61333 20.9867 4.02667 20.7467 3.28 20.56C2.56 20.3733 1.64 20.28 0.52 20.28V17.48C1.64 17.48 2.56 17.3867 3.28 17.2C4.02667 17.0133 4.61333 16.7867 5.04 16.52C5.46667 16.2267 5.76 15.9067 5.92 15.56C6.08 15.2133 6.16 14.8533 6.16 14.48C6.16 13.2267 6.09333 12.0533 5.96 10.96C5.82667 9.84 5.76 8.58667 5.76 7.2C5.76 6.13333 5.90667 5.25333 6.2 4.56C6.49333 3.84 6.94667 3.26667 7.56 2.84C8.17333 2.41333 8.94667 2.12 9.88 1.96C10.8133 1.77333 11.92 1.68 13.2 1.68H15.96V4.2H14.12C13.1867 4.2 12.4267 4.25333 11.84 4.36C11.2533 4.46667 10.7867 4.65333 10.44 4.92C10.12 5.16 9.89333 5.49333 9.76 5.92C9.65333 6.32 9.6 6.81333 9.6 7.4C9.6 8.52 9.62667 9.64 9.68 10.76C9.76 11.88 9.8 13.0533 9.8 14.28C9.8 15.6933 9.52 16.7467 8.96 17.44C8.4 18.1067 7.41333 18.56 6 18.8V18.96C7.41333 19.2 8.4 19.6667 8.96 20.36C9.52 21.0267 9.8 22.0667 9.8 23.48C9.8 24.76 9.76 25.9333 9.68 27C9.62667 28.0667 9.6 29.1867 9.6 30.36C9.6 30.9733 9.65333 31.48 9.76 31.88C9.89333 32.28 10.12 32.6 10.44 32.84C10.7867 33.1067 11.2533 33.2933 11.84 33.4C12.4267 33.5067 13.1867 33.56 14.12 33.56H15.96V36.08H13.2C11.92 36.08 10.8133 35.9867 9.88 35.8C8.94667 35.64 8.17333 35.3467 7.56 34.92C6.94667 34.4933 6.49333 33.92 6.2 33.2C5.90667 32.5067 5.76 31.6267 5.76 30.56ZM24.7444 20.32C24.7444 18.72 25.0244 17.2933 25.5844 16.04C26.1444 14.76 26.8777 13.68 27.7844 12.8C28.7177 11.92 29.771 11.2533 30.9444 10.8C32.1444 10.32 33.371 10.08 34.6244 10.08C36.011 10.08 37.251 10.3067 38.3444 10.76C39.4377 11.1867 40.3577 11.8 41.1044 12.6C41.8777 13.4 42.4644 14.36 42.8644 15.48C43.2644 16.6 43.4644 17.84 43.4644 19.2C43.4644 19.5467 43.451 19.8933 43.4244 20.24C43.4244 20.56 43.3977 20.84 43.3444 21.08H28.1444C28.171 22.12 28.371 23.0533 28.7444 23.88C29.1444 24.7067 29.6644 25.4133 30.3044 26C30.971 26.5867 31.7444 27.04 32.6244 27.36C33.531 27.68 34.5177 27.84 35.5844 27.84C36.731 27.84 37.771 27.68 38.7044 27.36C39.6644 27.04 40.5977 26.6 41.5044 26.04L42.6644 28.2C41.7044 28.8133 40.611 29.3467 39.3844 29.8C38.1577 30.2533 36.7577 30.48 35.1844 30.48C33.7444 30.48 32.3844 30.2533 31.1044 29.8C29.851 29.32 28.7444 28.6533 27.7844 27.8C26.851 26.92 26.1044 25.8533 25.5444 24.6C25.011 23.3467 24.7444 21.92 24.7444 20.32ZM40.4244 18.72C40.4244 16.7733 39.9177 15.28 38.9044 14.24C37.891 13.2 36.4777 12.68 34.6644 12.68C33.8644 12.68 33.091 12.8133 32.3444 13.08C31.6244 13.3467 30.971 13.7467 30.3844 14.28C29.7977 14.7867 29.3044 15.4133 28.9044 16.16C28.5044 16.9067 28.2377 17.76 28.1044 18.72H40.4244ZM50.3688 10.56H52.9288L53.2088 13.12H53.3288C53.8088 12.2133 54.3688 11.48 55.0088 10.92C55.6754 10.36 56.5688 10.08 57.6888 10.08C59.6621 10.08 60.8888 11.2 61.3688 13.44C61.9554 12.4267 62.5954 11.6133 63.2888 11C63.9821 10.3867 64.8754 10.08 65.9688 10.08C67.3288 10.08 68.3688 10.6 69.0887 11.64C69.8354 12.6533 70.2088 14.1333 70.2088 16.08V30H67.0488V16.36C67.0488 14.0667 66.3421 12.92 64.9288 12.92C64.2354 12.92 63.6354 13.1733 63.1288 13.68C62.6221 14.16 62.1154 14.9067 61.6088 15.92V30H58.9688V16.36C58.9688 14.0667 58.2354 12.92 56.7688 12.92C56.0754 12.92 55.4888 13.1733 55.0088 13.68C54.5288 14.16 54.0354 14.9067 53.5288 15.92V30H50.3688V10.56ZM77.1931 24.96C77.1931 23.8667 77.4465 22.92 77.9531 22.12C78.4865 21.2933 79.3131 20.5867 80.4331 20C81.5798 19.4133 83.0465 18.9333 84.8331 18.56C86.6198 18.1867 88.7665 17.8933 91.2731 17.68C91.2465 17.0133 91.1398 16.3867 90.9531 15.8C90.7665 15.2133 90.4731 14.7067 90.0731 14.28C89.6731 13.8267 89.1398 13.4667 88.4731 13.2C87.8331 12.9333 87.0465 12.8 86.1131 12.8C84.8331 12.8 83.6065 13.0533 82.4331 13.56C81.2598 14.04 80.2198 14.56 79.3131 15.12L78.0331 12.88C78.5131 12.56 79.0731 12.24 79.7131 11.92C80.3798 11.5733 81.0731 11.2667 81.7931 11C82.5398 10.7333 83.3265 10.52 84.1531 10.36C84.9798 10.1733 85.8198 10.08 86.6731 10.08C89.3398 10.08 91.3131 10.8133 92.5931 12.28C93.8998 13.72 94.5531 15.6533 94.5531 18.08V30H91.8731L91.5931 27.36H91.4731C90.3798 28.2133 89.1665 28.9467 87.8331 29.56C86.5265 30.1733 85.1798 30.48 83.7931 30.48C82.8865 30.48 82.0331 30.3467 81.2331 30.08C80.4331 29.84 79.7265 29.4933 79.1131 29.04C78.5265 28.56 78.0598 27.9867 77.7131 27.32C77.3665 26.6267 77.1931 25.84 77.1931 24.96ZM80.3931 24.72C80.3931 25.28 80.5131 25.76 80.7531 26.16C80.9931 26.5333 81.2998 26.8533 81.6731 27.12C82.0731 27.36 82.5265 27.5467 83.0331 27.68C83.5665 27.7867 84.1131 27.84 84.6731 27.84C85.7931 27.84 86.8865 27.6 87.9531 27.12C89.0465 26.6133 90.1531 25.8933 91.2731 24.96V19.84C89.1931 20 87.4465 20.2267 86.0331 20.52C84.6465 20.8133 83.5265 21.1733 82.6731 21.6C81.8465 22 81.2598 22.4667 80.9131 23C80.5665 23.5067 80.3931 24.08 80.3931 24.72ZM103.538 10.56H115.858V30H112.578V13.24H103.538V10.56ZM113.858 6.56C113.084 6.56 112.444 6.33333 111.938 5.88C111.458 5.42667 111.218 4.81333 111.218 4.04C111.218 3.26667 111.458 2.65333 111.938 2.2C112.444 1.72 113.084 1.48 113.858 1.48C114.604 1.48 115.231 1.72 115.738 2.2C116.244 2.65333 116.498 3.26667 116.498 4.04C116.498 4.81333 116.244 5.42667 115.738 5.88C115.231 6.33333 114.604 6.56 113.858 6.56ZM129.162 1.52H139.082V23.72C139.082 25.16 139.415 26.2 140.082 26.84C140.775 27.4533 141.709 27.76 142.882 27.76C143.949 27.76 145.175 27.4533 146.562 26.84L147.402 29.32C146.522 29.64 145.695 29.9067 144.922 30.12C144.149 30.36 143.229 30.48 142.162 30.48C140.082 30.48 138.495 29.8933 137.402 28.72C136.335 27.5467 135.802 25.8 135.802 23.48V4.2H129.162V1.52ZM160.666 12.8C160.666 11.7867 160.973 10.9733 161.586 10.36C162.226 9.72 163 9.4 163.906 9.4C164.813 9.4 165.573 9.72 166.186 10.36C166.826 10.9733 167.146 11.7867 167.146 12.8C167.146 13.8133 166.826 14.6267 166.186 15.24C165.573 15.8533 164.813 16.16 163.906 16.16C163 16.16 162.226 15.8533 161.586 15.24C160.973 14.6267 160.666 13.8133 160.666 12.8ZM160.666 27.12C160.666 26.1067 160.973 25.2933 161.586 24.68C162.226 24.04 163 23.72 163.906 23.72C164.813 23.72 165.573 24.04 166.186 24.68C166.826 25.2933 167.146 26.1067 167.146 27.12C167.146 28.1333 166.826 28.9467 166.186 29.56C165.573 30.1733 164.813 30.48 163.906 30.48C163 30.48 162.226 30.1733 161.586 29.56C160.973 28.9467 160.666 28.1333 160.666 27.12ZM180.731 24.72C180.731 23.6267 180.984 22.6667 181.491 21.84C181.997 20.9867 182.797 20.2667 183.891 19.68C184.984 19.0933 186.384 18.6133 188.091 18.24C189.797 17.8667 191.864 17.6 194.291 17.44C194.211 16.32 193.811 15.4 193.091 14.68C192.371 13.96 191.211 13.6 189.611 13.6C188.491 13.6 187.384 13.8133 186.291 14.24C185.224 14.64 184.184 15.12 183.171 15.68L181.491 12.6C182.691 11.9067 184.064 11.28 185.611 10.72C187.157 10.16 188.771 9.88 190.451 9.88C193.197 9.88 195.291 10.6133 196.731 12.08C198.171 13.52 198.891 15.6133 198.891 18.36V30H195.131L194.771 27.56H194.651C193.611 28.36 192.451 29.0533 191.171 29.64C189.917 30.2 188.624 30.48 187.291 30.48C186.331 30.48 185.451 30.3333 184.651 30.04C183.851 29.7733 183.157 29.3867 182.571 28.88C181.984 28.3733 181.531 27.7733 181.211 27.08C180.891 26.36 180.731 25.5733 180.731 24.72ZM185.171 24.36C185.171 25.24 185.504 25.88 186.171 26.28C186.864 26.68 187.704 26.88 188.691 26.88C189.677 26.88 190.624 26.6667 191.531 26.24C192.464 25.7867 193.384 25.2 194.291 24.48V20.32C192.531 20.4533 191.064 20.64 189.891 20.88C188.717 21.0933 187.784 21.3733 187.091 21.72C186.397 22.0667 185.904 22.4667 185.611 22.92C185.317 23.3467 185.171 23.8267 185.171 24.36ZM211.795 31.6V37.76H207.155V10.36H210.955L211.315 12.6H211.435C212.288 11.8267 213.262 11.1867 214.355 10.68C215.475 10.1467 216.595 9.88 217.715 9.88C218.995 9.88 220.128 10.12 221.115 10.6C222.128 11.0533 222.968 11.72 223.635 12.6C224.328 13.48 224.848 14.5333 225.195 15.76C225.568 16.9867 225.755 18.36 225.755 19.88C225.755 21.56 225.515 23.0667 225.035 24.4C224.555 25.7067 223.902 26.8133 223.075 27.72C222.275 28.6 221.342 29.28 220.275 29.76C219.235 30.24 218.155 30.48 217.035 30.48C216.128 30.48 215.195 30.28 214.235 29.88C213.302 29.48 212.435 28.9067 211.635 28.16L211.795 31.6ZM211.795 24.88C212.515 25.5467 213.248 26.0133 213.995 26.28C214.768 26.5467 215.462 26.68 216.075 26.68C217.488 26.68 218.662 26.12 219.595 25C220.528 23.8533 220.995 22.16 220.995 19.92C220.995 17.9467 220.635 16.4133 219.915 15.32C219.195 14.2267 218.035 13.68 216.435 13.68C215.688 13.68 214.928 13.8667 214.155 14.24C213.382 14.6133 212.595 15.2133 211.795 16.04V24.88ZM233.219 10.36H246.339V30H241.739V14H233.219V10.36ZM243.699 6.92C242.766 6.92 241.979 6.64 241.339 6.08C240.726 5.52 240.419 4.77333 240.419 3.84C240.419 2.90667 240.726 2.16 241.339 1.6C241.979 1.01333 242.766 0.719998 243.699 0.719998C244.659 0.719998 245.446 1.01333 246.059 1.6C246.673 2.16 246.979 2.90667 246.979 3.84C246.979 4.77333 246.673 5.52 246.059 6.08C245.446 6.64 244.659 6.92 243.699 6.92ZM261.764 33.56C262.67 33.56 263.417 33.5067 264.004 33.4C264.59 33.2933 265.057 33.1067 265.404 32.84C265.75 32.6 265.977 32.28 266.084 31.88C266.217 31.48 266.284 30.9733 266.284 30.36C266.284 29.1867 266.244 28.0667 266.164 27C266.11 25.9333 266.084 24.76 266.084 23.48C266.084 22.0667 266.35 21.0267 266.884 20.36C267.444 19.6667 268.444 19.2 269.884 18.96V18.8C268.444 18.56 267.444 18.1067 266.884 17.44C266.35 16.7467 266.084 15.6933 266.084 14.28C266.084 13.0533 266.11 11.88 266.164 10.76C266.244 9.64 266.284 8.52 266.284 7.4C266.284 6.81333 266.217 6.32 266.084 5.92C265.977 5.49333 265.75 5.16 265.404 4.92C265.057 4.65333 264.59 4.46667 264.004 4.36C263.417 4.25333 262.67 4.2 261.764 4.2H259.924V1.68H262.684C263.964 1.68 265.057 1.77333 265.964 1.96C266.897 2.12 267.67 2.41333 268.284 2.84C268.897 3.26667 269.35 3.84 269.644 4.56C269.937 5.25333 270.084 6.13333 270.084 7.2C270.084 8.58667 270.017 9.84 269.884 10.96C269.75 12.0533 269.684 13.2267 269.684 14.48C269.684 14.8533 269.764 15.2133 269.924 15.56C270.084 15.9067 270.377 16.2267 270.804 16.52C271.23 16.7867 271.804 17.0133 272.524 17.2C273.27 17.3867 274.204 17.48 275.324 17.48V20.28C274.204 20.28 273.27 20.3733 272.524 20.56C271.804 20.7467 271.23 20.9867 270.804 21.28C270.377 21.5467 270.084 21.8667 269.924 22.24C269.764 22.5867 269.684 22.9333 269.684 23.28C269.684 23.9467 269.697 24.5733 269.724 25.16C269.777 25.72 269.83 26.28 269.884 26.84C269.937 27.4 269.977 27.9867 270.004 28.6C270.057 29.1867 270.084 29.84 270.084 30.56C270.084 31.6267 269.937 32.5067 269.644 33.2C269.35 33.92 268.897 34.4933 268.284 34.92C267.67 35.3467 266.897 35.64 265.964 35.8C265.057 35.9867 263.964 36.08 262.684 36.08H259.924V33.56H261.764Z" fill="#333333"/>
</svg>
